<svg width="24" height="21" viewBox="0 0 24 21" fill="none" xmlns="http://www.w3.org/2000/svg">
<path fill-rule="evenodd" clip-rule="evenodd" d="M0.376465 13.5237C0.376465 9.65769 3.51047 6.52368 7.37646 6.52368H10.3765C14.2425 6.52368 17.3765 9.65769 17.3765 13.5237C17.3765 17.3897 14.2425 20.5237 10.3765 20.5237H7.37646C3.51047 20.5237 0.376465 17.3897 0.376465 13.5237ZM7.37646 7.52368C4.06276 7.52368 1.37646 10.21 1.37646 13.5237C1.37646 16.8374 4.06276 19.5237 7.37646 19.5237H10.3765C13.6902 19.5237 16.3765 16.8374 16.3765 13.5237C16.3765 10.21 13.6902 7.52368 10.3765 7.52368H7.37646Z" fill="white"/>
<path fill-rule="evenodd" clip-rule="evenodd" d="M6.37646 7.52368C6.37646 3.65769 9.51047 0.523682 13.3765 0.523682H16.3765C20.2425 0.523682 23.3765 3.65769 23.3765 7.52368C23.3765 11.3897 20.2425 14.5237 16.3765 14.5237H13.3765C9.51047 14.5237 6.37646 11.3897 6.37646 7.52368ZM13.3765 1.52368C10.0628 1.52368 7.37646 4.20997 7.37646 7.52368C7.37646 10.8374 10.0628 13.5237 13.3765 13.5237H16.3765C19.6902 13.5237 22.3765 10.8374 22.3765 7.52368C22.3765 4.20997 19.6902 1.52368 16.3765 1.52368H13.3765Z" fill="white"/>
</svg>
