<svg width="26" height="12" viewBox="0 0 26 12" fill="none" xmlns="http://www.w3.org/2000/svg">
<path fill-rule="evenodd" clip-rule="evenodd" d="M14.3765 6.02368C14.3765 2.98612 16.8389 0.523682 19.8765 0.523682C22.914 0.523682 25.3765 2.98612 25.3765 6.02368C25.3765 9.06125 22.914 11.5237 19.8765 11.5237C16.8389 11.5237 14.3765 9.06125 14.3765 6.02368ZM19.8765 1.52368C17.3912 1.52368 15.3765 3.5384 15.3765 6.02368C15.3765 8.50896 17.3912 10.5237 19.8765 10.5237C22.3617 10.5237 24.3765 8.50896 24.3765 6.02368C24.3765 3.5384 22.3617 1.52368 19.8765 1.52368Z" fill="white"/>
<path fill-rule="evenodd" clip-rule="evenodd" d="M0.376465 6.02368C0.376465 2.98612 2.8389 0.523682 5.87646 0.523682C8.91403 0.523682 11.3765 2.98612 11.3765 6.02368C11.3765 9.06125 8.91403 11.5237 5.87646 11.5237C2.8389 11.5237 0.376465 9.06125 0.376465 6.02368ZM5.87646 1.52368C3.39118 1.52368 1.37646 3.5384 1.37646 6.02368C1.37646 8.50896 3.39118 10.5237 5.87646 10.5237C8.36175 10.5237 10.3765 8.50896 10.3765 6.02368C10.3765 3.5384 8.36175 1.52368 5.87646 1.52368Z" fill="white"/>
<path fill-rule="evenodd" clip-rule="evenodd" d="M14.894 6.66058C14.894 5.58056 14.016 4.70688 12.938 4.70688C11.86 4.70688 10.982 5.58056 10.982 6.66058V8.11429C10.982 8.39043 11.2059 8.61429 11.482 8.61429C11.7582 8.61429 11.982 8.39043 11.982 8.11429V6.66058C11.982 6.13489 12.4103 5.70688 12.938 5.70688C13.4658 5.70688 13.894 6.13489 13.894 6.66058V8.11429C13.894 8.39043 14.1179 8.61429 14.394 8.61429C14.6702 8.61429 14.894 8.39043 14.894 8.11429V6.66058Z" fill="white"/>
</svg>
