<svg width="27" height="25" viewBox="0 0 27 25" fill="none" xmlns="http://www.w3.org/2000/svg">
<path fill-rule="evenodd" clip-rule="evenodd" d="M25.3811 19.7764V10.2929C25.3811 8.92575 24.6828 7.65327 23.5296 6.91892L15.5296 1.82466C14.2189 0.990005 12.5433 0.990004 11.2326 1.82466L3.2326 6.91892C2.07938 7.65327 1.3811 8.92575 1.3811 10.2929V19.7764C1.3811 21.9855 3.17197 23.7764 5.3811 23.7764H21.3811C23.5902 23.7764 25.3811 21.9855 25.3811 19.7764ZM2.69547 6.07542C1.25395 6.99335 0.381104 8.58395 0.381104 10.2929V19.7764C0.381104 22.5378 2.61968 24.7764 5.3811 24.7764H21.3811C24.1425 24.7764 26.3811 22.5378 26.3811 19.7764V10.2929C26.3811 8.58395 25.5083 6.99335 24.0667 6.07542L16.0667 0.981162C14.4283 -0.0621604 12.3339 -0.062162 10.6955 0.981161L2.69547 6.07542Z" fill="white"/>
<path fill-rule="evenodd" clip-rule="evenodd" d="M15.8765 14.0237H10.8765L10.8765 22.0237H15.8765V14.0237ZM10.8765 13.0237C10.3242 13.0237 9.87646 13.4714 9.87646 14.0237V22.0237C9.87646 22.576 10.3242 23.0237 10.8765 23.0237H15.8765C16.4287 23.0237 16.8765 22.576 16.8765 22.0237V14.0237C16.8765 13.4714 16.4287 13.0237 15.8765 13.0237H10.8765Z" fill="white"/>
</svg>
