<svg width="27" height="25" viewBox="0 0 27 25" fill="none" xmlns="http://www.w3.org/2000/svg">
<path fill-rule="evenodd" clip-rule="evenodd" d="M17.3765 1.02368C22.0709 1.02368 25.8765 4.82926 25.8765 9.52368C25.8765 13.3274 23.3772 16.5501 19.9288 17.6341C18.3774 18.1218 16.971 19.0596 15.9101 20.2771C14.6593 21.7122 12.9078 22.6955 10.9281 22.9552C11.4568 22.2386 11.8924 21.4485 12.2167 20.6026C12.7417 19.2333 11.6172 18.0237 10.3765 18.0237C5.68204 18.0237 1.87646 14.2181 1.87646 9.52368C1.87646 4.82926 5.68204 1.02368 10.3765 1.02368H17.3765ZM26.8765 9.52368C26.8765 4.27698 22.6232 0.0236816 17.3765 0.0236816H10.3765C5.12976 0.0236816 0.876465 4.27698 0.876465 9.52368C0.876465 14.7704 5.12976 19.0237 10.3765 19.0237C11.0307 19.0237 11.5171 19.6338 11.283 20.2446C10.8785 21.2995 10.2812 22.2589 9.53426 23.0797C9.21309 23.4325 9.39931 24.0237 9.87646 24.0237C12.585 24.0237 15.014 22.8273 16.6639 20.9341C17.6076 19.8512 18.8585 19.0188 20.2287 18.5881C24.0818 17.3768 26.8765 13.7766 26.8765 9.52368Z" fill="white"/>
<path fill-rule="evenodd" clip-rule="evenodd" d="M7.87646 7.52368C7.87646 7.24754 8.10032 7.02368 8.37646 7.02368H21.3765C21.6526 7.02368 21.8765 7.24754 21.8765 7.52368C21.8765 7.79982 21.6526 8.02368 21.3765 8.02368H8.37646C8.10032 8.02368 7.87646 7.79982 7.87646 7.52368Z" fill="white"/>
<path fill-rule="evenodd" clip-rule="evenodd" d="M7.87646 11.5237C7.87646 11.2475 8.10032 11.0237 8.37646 11.0237H21.3765C21.6526 11.0237 21.8765 11.2475 21.8765 11.5237C21.8765 11.7998 21.6526 12.0237 21.3765 12.0237H8.37646C8.10032 12.0237 7.87646 11.7998 7.87646 11.5237Z" fill="white"/>
</svg>
