<svg width="22" height="25" viewBox="0 0 22 25" fill="none" xmlns="http://www.w3.org/2000/svg">
<path fill-rule="evenodd" clip-rule="evenodd" d="M0.376465 14.0237C0.376465 11.5384 2.39118 9.52369 4.87646 9.52369H10.8765C13.3617 9.52369 15.3765 11.5384 15.3765 14.0237V20.0237C15.3765 22.509 13.3617 24.5237 10.8765 24.5237H4.87646C2.39118 24.5237 0.376465 22.509 0.376465 20.0237V14.0237ZM4.87646 10.5237C2.94347 10.5237 1.37646 12.0907 1.37646 14.0237V20.0237C1.37646 21.9567 2.94347 23.5237 4.87646 23.5237H10.8765C12.8095 23.5237 14.3765 21.9567 14.3765 20.0237V14.0237C14.3765 12.0907 12.8095 10.5237 10.8765 10.5237H4.87646Z" fill="white"/>
<path fill-rule="evenodd" clip-rule="evenodd" d="M18.6303 1.01867L21.8122 4.20065C22.0075 4.39591 22.0075 4.71249 21.8122 4.90776L18.6303 8.08974C18.435 8.285 18.1184 8.285 17.9231 8.08974C17.7279 7.89448 17.7279 7.57789 17.9231 7.38263L20.2516 5.0542L13.2849 5.0542C10.7998 5.0542 8.78515 7.06869 8.78494 9.55382L8.78443 15.6239L7.78443 15.6238L7.78494 9.55373C7.7852 6.51635 10.2476 4.0542 13.2849 4.0542L20.2516 4.0542L17.9231 1.72578C17.7279 1.53051 17.7279 1.21393 17.9231 1.01867C18.1184 0.823407 18.435 0.823407 18.6303 1.01867Z" fill="white"/>
</svg>
