<svg width="27" height="27" viewBox="0 0 27 27" fill="none" xmlns="http://www.w3.org/2000/svg">
<path fill-rule="evenodd" clip-rule="evenodd" d="M13.3765 1.52368C6.74905 1.52368 1.37646 6.89626 1.37646 13.5237C1.37646 20.1511 6.74905 25.5237 13.3765 25.5237C20.0039 25.5237 25.3765 20.1511 25.3765 13.5237C25.3765 6.89626 20.0039 1.52368 13.3765 1.52368ZM0.376465 13.5237C0.376465 6.34398 6.19676 0.523682 13.3765 0.523682C20.5562 0.523682 26.3765 6.34398 26.3765 13.5237C26.3765 20.7034 20.5562 26.5237 13.3765 26.5237C6.19676 26.5237 0.376465 20.7034 0.376465 13.5237Z" fill="#DCD5FF"/>
<path fill-rule="evenodd" clip-rule="evenodd" d="M8.2673 17.763C5.43558 17.6468 4.44468 13.9487 6.83891 12.4322C7.53613 11.9906 7.86624 11.1388 7.65169 10.3381C6.92513 7.62653 10.0561 5.48039 12.2953 7.22511L12.445 7.34177C13.0988 7.85115 14.002 7.89513 14.7021 7.45167L14.9262 7.30968C17.2907 5.81204 20.1851 8.22891 19.1332 10.8226C18.8177 11.6007 19.057 12.4937 19.7193 13.0098C21.9271 14.73 20.6289 18.2703 17.8324 18.1555L17.5673 18.1446C16.7392 18.1107 15.979 18.6003 15.6675 19.3683L15.5962 19.5442C14.5294 22.1748 10.7448 21.8817 10.0182 19.1701C9.80368 18.3694 9.09192 17.7968 8.2673 17.763ZM7.374 13.277C5.80794 14.2689 6.45609 16.6878 8.30831 16.7638C9.57361 16.8158 10.6573 17.6916 10.9842 18.9113C11.4706 20.7268 13.975 20.881 14.6695 19.1684L14.7409 18.9925C15.211 17.8333 16.3584 17.0942 17.6083 17.1455L17.8734 17.1564C19.6982 17.2313 20.5453 14.9211 19.1047 13.7986C18.0897 13.0077 17.723 11.6392 18.2066 10.4468C18.8929 8.7543 17.0042 7.17721 15.4613 8.15448L15.2372 8.29646C14.1804 8.96581 12.8171 8.89944 11.8304 8.13059L11.6807 8.01392C10.2229 6.87806 8.13117 8.26382 8.61761 10.0793C8.94443 11.2989 8.44382 12.5993 7.374 13.277Z" fill="#DCD5FF"/>
</svg>
