<svg width="25" height="22" viewBox="0 0 25 22" fill="none" xmlns="http://www.w3.org/2000/svg">
<path fill-rule="evenodd" clip-rule="evenodd" d="M2.37646 6.52368C1.82418 6.52368 1.37646 6.9714 1.37646 7.52368C1.37646 8.07597 1.82418 8.52368 2.37646 8.52368C2.92875 8.52368 3.37646 8.07597 3.37646 7.52368C3.37646 6.9714 2.92875 6.52368 2.37646 6.52368ZM0.376465 7.52368C0.376465 6.41911 1.2719 5.52368 2.37646 5.52368C3.48103 5.52368 4.37646 6.41911 4.37646 7.52368C4.37646 8.62825 3.48103 9.52368 2.37646 9.52368C1.2719 9.52368 0.376465 8.62825 0.376465 7.52368Z" fill="white"/>
<path fill-rule="evenodd" clip-rule="evenodd" d="M17.3765 8.52368C16.8242 8.52368 16.3765 8.9714 16.3765 9.52368C16.3765 10.076 16.8242 10.5237 17.3765 10.5237C17.9287 10.5237 18.3765 10.076 18.3765 9.52368C18.3765 8.9714 17.9287 8.52368 17.3765 8.52368ZM15.3765 9.52368C15.3765 8.41911 16.2719 7.52368 17.3765 7.52368C18.481 7.52368 19.3765 8.41911 19.3765 9.52368C19.3765 10.6283 18.481 11.5237 17.3765 11.5237C16.2719 11.5237 15.3765 10.6283 15.3765 9.52368Z" fill="white"/>
<path fill-rule="evenodd" clip-rule="evenodd" d="M22.3765 3.52368C21.8242 3.52368 21.3765 3.9714 21.3765 4.52368C21.3765 5.07597 21.8242 5.52368 22.3765 5.52368C22.9287 5.52368 23.3765 5.07597 23.3765 4.52368C23.3765 3.9714 22.9287 3.52368 22.3765 3.52368ZM20.3765 4.52368C20.3765 3.41911 21.2719 2.52368 22.3765 2.52368C23.481 2.52368 24.3765 3.41911 24.3765 4.52368C24.3765 5.62825 23.481 6.52368 22.3765 6.52368C21.2719 6.52368 20.3765 5.62825 20.3765 4.52368Z" fill="white"/>
<path fill-rule="evenodd" clip-rule="evenodd" d="M8.37646 1.52368C7.82418 1.52368 7.37646 1.9714 7.37646 2.52368C7.37646 3.07597 7.82418 3.52368 8.37646 3.52368C8.92875 3.52368 9.37646 3.07597 9.37646 2.52368C9.37646 1.9714 8.92875 1.52368 8.37646 1.52368ZM6.37646 2.52368C6.37646 1.41911 7.2719 0.523682 8.37646 0.523682C9.48103 0.523682 10.3765 1.41911 10.3765 2.52368C10.3765 3.62825 9.48103 4.52368 8.37646 4.52368C7.2719 4.52368 6.37646 3.62825 6.37646 2.52368Z" fill="white"/>
<path fill-rule="evenodd" clip-rule="evenodd" d="M3.52291 5.67014C3.32765 5.47488 3.32765 5.1583 3.52291 4.96304L6.35134 2.13461C6.5466 1.93935 6.86318 1.93935 7.05844 2.13461C7.25371 2.32987 7.25371 2.64645 7.05844 2.84172L4.23002 5.67014C4.03476 5.8654 3.71817 5.8654 3.52291 5.67014Z" fill="white"/>
<path fill-rule="evenodd" clip-rule="evenodd" d="M18.5229 9.67014C18.3277 9.47488 18.3277 9.1583 18.5229 8.96304L21.3514 6.13461C21.5466 5.93935 21.8632 5.93935 22.0585 6.13461C22.2537 6.32987 22.2537 6.64645 22.0585 6.84172L19.23 9.67014C19.0348 9.8654 18.7182 9.8654 18.5229 9.67014Z" fill="white"/>
<path fill-rule="evenodd" clip-rule="evenodd" d="M10.2481 2.68919C10.4534 2.50446 10.7695 2.5211 10.9542 2.72635L16.306 8.67271C16.4907 8.87796 16.474 9.19411 16.2688 9.37884C16.0635 9.56357 15.7474 9.54693 15.5627 9.34167L10.2109 3.39532C10.0262 3.19006 10.0428 2.87392 10.2481 2.68919Z" fill="white"/>
<path fill-rule="evenodd" clip-rule="evenodd" d="M2.37646 14.0237C2.65261 14.0237 2.87646 14.2475 2.87646 14.5237L2.87646 20.5237C2.87646 20.7998 2.65261 21.0237 2.37646 21.0237C2.10032 21.0237 1.87646 20.7998 1.87646 20.5237L1.87646 14.5237C1.87646 14.2475 2.10032 14.0237 2.37646 14.0237Z" fill="white"/>
<path fill-rule="evenodd" clip-rule="evenodd" d="M12.3765 14.0237C12.6526 14.0237 12.8765 14.2475 12.8765 14.5237L12.8765 20.5237C12.8765 20.7998 12.6526 21.0237 12.3765 21.0237C12.1003 21.0237 11.8765 20.7998 11.8765 20.5237L11.8765 14.5237C11.8765 14.2475 12.1003 14.0237 12.3765 14.0237Z" fill="white"/>
<path fill-rule="evenodd" clip-rule="evenodd" d="M22.3765 14.0237C22.6526 14.0237 22.8765 14.2475 22.8765 14.5237L22.8765 20.5237C22.8765 20.7998 22.6526 21.0237 22.3765 21.0237C22.1003 21.0237 21.8765 20.7998 21.8765 20.5237L21.8765 14.5237C21.8765 14.2475 22.1003 14.0237 22.3765 14.0237Z" fill="white"/>
<path fill-rule="evenodd" clip-rule="evenodd" d="M17.3765 16.0237C17.6526 16.0237 17.8765 16.2475 17.8765 16.5237L17.8765 20.5237C17.8765 20.7998 17.6526 21.0237 17.3765 21.0237C17.1003 21.0237 16.8765 20.7998 16.8765 20.5237L16.8765 16.5237C16.8765 16.2475 17.1003 16.0237 17.3765 16.0237Z" fill="white"/>
<path fill-rule="evenodd" clip-rule="evenodd" d="M7.37646 10.0237C7.65261 10.0237 7.87646 10.2475 7.87646 10.5237L7.87647 20.5237C7.87647 20.7998 7.65261 21.0237 7.37647 21.0237C7.10032 21.0237 6.87647 20.7998 6.87647 20.5237L6.87646 10.5237C6.87646 10.2475 7.10032 10.0237 7.37646 10.0237Z" fill="white"/>
</svg>
